<svg width="25" height="24" viewBox="0 0 25 24" fill="none" xmlns="http://www.w3.org/2000/svg">
<path d="M12.5 14.1C11.3281 14.1 10.3125 13.2 10.3125 12C10.3125 10.875 11.25 9.9 12.5 9.9C13.6719 9.9 14.6875 10.8 14.6875 12C14.6875 13.125 13.6719 14.1 12.5 14.1Z" fill="white"/>
<path fill-rule="evenodd" clip-rule="evenodd" d="M15.1562 6.9H9.84375C9.21875 6.975 8.90625 7.05 8.67188 7.125C8.35938 7.2 8.125 7.35 7.89063 7.575C7.70517 7.75304 7.61754 7.93108 7.51163 8.14628C7.48372 8.20299 7.45446 8.26244 7.42188 8.325C7.40979 8.35981 7.39583 8.39641 7.38088 8.43564C7.29915 8.65 7.1875 8.94282 7.1875 9.45V14.55C7.26562 15.15 7.34375 15.45 7.42188 15.675C7.5 15.975 7.65625 16.2 7.89063 16.425C8.07608 16.603 8.26154 16.6872 8.48571 16.7888C8.54484 16.8157 8.60665 16.8437 8.67188 16.875C8.70813 16.8866 8.74626 16.9 8.78712 16.9144C9.01042 16.9928 9.31544 17.1 9.84375 17.1H15.1562C15.7812 17.025 16.0938 16.95 16.3281 16.875C16.6406 16.8 16.875 16.65 17.1094 16.425C17.2948 16.247 17.3825 16.0689 17.4884 15.8537C17.5163 15.797 17.5455 15.7376 17.5781 15.675C17.5902 15.6402 17.6042 15.6036 17.6191 15.5644C17.7009 15.35 17.8125 15.0572 17.8125 14.55V9.45C17.7344 8.85 17.6562 8.55 17.5781 8.325C17.5 8.025 17.3438 7.8 17.1094 7.575C16.9239 7.39696 16.7385 7.31284 16.5143 7.21116C16.4553 7.18439 16.3932 7.15625 16.3281 7.125C16.2919 7.1134 16.2537 7.1 16.2129 7.08564C15.9896 7.00718 15.6846 6.9 15.1562 6.9ZM12.5 8.775C10.625 8.775 9.14062 10.2 9.14062 12C9.14062 13.8 10.625 15.225 12.5 15.225C14.375 15.225 15.8594 13.8 15.8594 12C15.8594 10.2 14.375 8.775 12.5 8.775ZM16.7188 8.7C16.7188 9.11421 16.369 9.45 15.9375 9.45C15.506 9.45 15.1562 9.11421 15.1562 8.7C15.1562 8.28578 15.506 7.95 15.9375 7.95C16.369 7.95 16.7188 8.28578 16.7188 8.7Z" fill="white"/>
<path fill-rule="evenodd" clip-rule="evenodd" d="M0 3.75C0 1.67893 1.74889 0 3.90625 0H21.0938C23.2511 0 25 1.67893 25 3.75V20.25C25 22.3211 23.2511 24 21.0938 24H3.90625C1.74889 24 0 22.3211 0 20.25V3.75ZM9.84375 5.775H15.1562C15.8594 5.85 16.3281 5.925 16.7188 6.075C17.1875 6.3 17.5 6.45 17.8906 6.825C18.2812 7.2 18.5156 7.575 18.6719 7.95C18.8281 8.325 18.9844 8.775 18.9844 9.45V14.55C18.9062 15.225 18.8281 15.675 18.6719 16.05C18.4375 16.5 18.2812 16.8 17.8906 17.175C17.5 17.55 17.1094 17.775 16.7188 17.925C16.3281 18.075 15.8594 18.225 15.1562 18.225H9.84375C9.14063 18.15 8.67188 18.075 8.28125 17.925C7.8125 17.7 7.5 17.55 7.10938 17.175C6.71875 16.8 6.48438 16.425 6.32813 16.05C6.17188 15.675 6.01562 15.225 6.01562 14.55V9.45C6.09375 8.775 6.17188 8.325 6.32813 7.95C6.5625 7.5 6.71875 7.2 7.10938 6.825C7.5 6.45 7.89063 6.225 8.28125 6.075C8.67188 5.925 9.14063 5.775 9.84375 5.775Z" fill="white"/>
</svg>
