<svg width="14" height="11" viewBox="0 0 14 11" fill="none" xmlns="http://www.w3.org/2000/svg">
<path fill-rule="evenodd" clip-rule="evenodd" d="M12.3375 1.69231C12.95 1.60769 13.475 1.52308 14 1.26923C13.65 1.86154 13.125 2.36923 12.5125 2.70769C12.6875 6.68462 9.7125 11 4.375 11C2.8 11 1.3125 10.4923 0 9.73077C1.4875 9.9 3.0625 9.47692 4.1125 8.71538C2.8 8.71538 1.75 7.86923 1.4 6.76923C1.8375 6.85385 2.275 6.76923 2.7125 6.68462C1.4 6.34615 0.4375 5.16154 0.4375 3.89231C0.875 4.06154 1.3125 4.23077 1.75 4.23077C0.525 3.38462 0.0875003 1.77692 0.875 0.507693C2.3625 2.2 4.4625 3.3 6.825 3.38462C6.3875 1.69231 7.7875 0 9.625 0C10.4125 0 11.2 0.338461 11.725 0.846154C12.425 0.676923 13.0375 0.507692 13.5625 0.169231C13.3875 0.846154 12.95 1.35385 12.3375 1.69231Z" fill="#00525D"/>
</svg>
